<?xml version="1.0" encoding="utf-8"?>
<!-- Generator: Adobe Illustrator 23.0.2, SVG Export Plug-In . SVG Version: 6.00 Build 0)  -->
<svg version="1.1" id="Layer_1" xmlns="http://www.w3.org/2000/svg" xmlns:xlink="http://www.w3.org/1999/xlink" x="0px" y="0px"
	 viewBox="0 0 866 238" style="enable-background:new 0 0 866 238;" xml:space="preserve">
<style type="text/css">
	.st0{fill:#3368C6;}
</style>
<g>
	<path class="st0" d="M78.7,142.9l-8,29H44.2L78.7,59.1h33.5l35,112.8h-27.4l-8.7-29H78.7z M107.3,123.8l-7-23.9
		c-2-6.7-4-15.1-5.7-21.8h-0.3c-1.7,6.7-3.3,15.2-5.2,21.8l-6.7,23.9H107.3z"/>
	<path class="st0" d="M237.6,53v94.4c0,9.2,0.3,18.9,0.7,24.4h-22.6l-1.2-12h-0.3c-5.2,9.2-15.1,13.9-25.6,13.9
		c-19.4,0-35-16.6-35-42c-0.2-27.6,17.1-43.5,36.6-43.5c10,0,17.9,3.5,21.6,9.2h0.3V53H237.6z M212.2,124.7c0-1.3-0.2-3.2-0.3-4.5
		c-1.5-6.9-7-12.6-14.9-12.6c-11.5,0-17.6,10.4-17.6,23.3c0,13.9,6.9,22.6,17.4,22.6c7.4,0,13.2-5,14.7-12.2
		c0.5-1.8,0.7-3.7,0.7-5.9V124.7z"/>
	<path class="st0" d="M257.4,116.1c0-10.2-0.3-18.9-0.7-26.1h21.4l1.2,11h0.5c3.5-5.2,10.7-12.9,24.8-12.9
		c10.5,0,18.9,5.4,22.4,13.9h0.3c3-4.2,6.7-7.5,10.5-9.9c4.5-2.7,9.5-4,15.6-4c15.7,0,27.6,11,27.6,35.5v48.2h-24.8v-44.5
		c0-11.9-3.8-18.7-12-18.7c-5.9,0-10,4-11.7,8.9c-0.7,1.8-1,4.5-1,6.5v47.9h-24.8V126c0-10.4-3.7-17.4-11.7-17.4
		c-6.5,0-10.4,5-11.9,9.2c-0.8,2-1,4.4-1,6.4v47.7h-24.8V116.1z"/>
	<path class="st0" d="M426.9,67.3c0,7-5.4,12.7-13.7,12.7c-8,0-13.4-5.7-13.2-12.7c-0.2-7.4,5.2-12.9,13.4-12.9
		C421.5,54.4,426.7,59.9,426.9,67.3z M400.6,171.8V90h25.4v81.8H400.6z"/>
	<path class="st0" d="M445.8,116.1c0-10.2-0.3-18.9-0.7-26.1h22.1l1.2,11.2h0.5c3.3-5.2,11.7-13.1,25.3-13.1
		c16.7,0,29.3,11,29.3,35.1v48.5H498v-45.4c0-10.5-3.7-17.7-12.9-17.7c-7,0-11.2,4.9-12.9,9.5c-0.7,1.5-1,4-1,6.4v47.2h-25.4V116.1z
		"/>
	<path class="st0" d="M578.5,154.1c6.5,4,16.1,7.4,26.1,7.4c14.9,0,23.6-7.9,23.6-19.2c0-10.5-6-16.6-21.3-22.4
		c-18.4-6.5-29.8-16.1-29.8-32c0-17.6,14.6-30.6,36.5-30.6c11.5,0,19.9,2.7,24.9,5.5l-4,11.9c-3.7-2-11.2-5.4-21.4-5.4
		c-15.4,0-21.3,9.2-21.3,16.9c0,10.5,6.9,15.7,22.4,21.8c19.1,7.4,28.8,16.6,28.8,33.1c0,17.4-12.9,32.5-39.5,32.5
		c-10.9,0-22.8-3.2-28.8-7.2L578.5,154.1z"/>
	<path class="st0" d="M678.2,68.1c0.2,5-3.5,9-9.4,9c-5.2,0-8.9-4-8.9-9c0-5.2,3.8-9.2,9.2-9.2C674.7,58.9,678.2,62.9,678.2,68.1z
		 M661.8,171.8v-81h14.7v81H661.8z"/>
	<path class="st0" d="M718.1,67.6v23.3h21.1v11.2h-21.1v43.7c0,10,2.8,15.7,11,15.7c3.8,0,6.7-0.5,8.5-1l0.7,11
		c-2.8,1.2-7.4,2-13.1,2c-6.9,0-12.4-2.2-15.9-6.2c-4.2-4.4-5.7-11.5-5.7-21.1v-44.2h-12.6V90.9h12.6V71.4L718.1,67.6z"/>
	<path class="st0" d="M762.2,134c0.3,19.9,13.1,28.1,27.8,28.1c10.5,0,16.9-1.8,22.4-4.2l2.5,10.5c-5.2,2.3-14.1,5-26.9,5
		c-24.9,0-39.8-16.4-39.8-40.8s14.4-43.7,38-43.7c26.4,0,33.5,23.3,33.5,38.2c0,3-0.3,5.4-0.5,6.9H762.2z M805.4,123.5
		c0.2-9.4-3.8-23.9-20.4-23.9c-14.9,0-21.4,13.7-22.6,23.9H805.4z"/>
</g>
</svg>
