<?xml version="1.0" encoding="utf-8"?>
<!-- Generator: Adobe Illustrator 23.0.2, SVG Export Plug-In . SVG Version: 6.00 Build 0)  -->
<svg version="1.1" id="Layer_1" xmlns="http://www.w3.org/2000/svg" xmlns:xlink="http://www.w3.org/1999/xlink" x="0px" y="0px"
	 viewBox="0 0 1371 1353" style="enable-background:new 0 0 1371 1353;" xml:space="preserve">
<style type="text/css">
	.st0{fill:#B3EAFF;}
	.st1{fill:#3368C6;}
</style>
<g>
	<rect x="0" class="st0" width="1371" height="1353"/>
	<path class="st1" d="M1235,1353H136.4c5.5-158,11.4-377.2,16.9-399c0.3-1.2,0.6-2.4,1-3.6c0.1-0.2,0.1-0.5,0.2-0.7
		c0.4-1.1,0.8-2.3,1.2-3.4c0.1-0.2,0.1-0.4,0.2-0.6c0.4-1,0.8-2,1.3-3.1c0.1-0.2,0.1-0.3,0.2-0.5c0.5-1.1,1-2.2,1.5-3.3
		c0.1-0.2,0.3-0.5,0.4-0.7c0.5-1.1,1.1-2.1,1.7-3.2c0.1-0.1,0.1-0.2,0.2-0.4c0.5-1,1.1-1.9,1.7-2.9c0.1-0.2,0.3-0.5,0.4-0.7
		c0.6-1,1.3-2,2-3c0.2-0.2,0.3-0.5,0.5-0.7c0.6-0.9,1.3-1.8,2-2.7c0.1-0.1,0.2-0.3,0.3-0.4c0.7-1,1.5-1.9,2.3-2.9
		c0.2-0.3,0.4-0.5,0.6-0.8c0.8-0.9,1.6-1.9,2.4-2.8c0.2-0.2,0.4-0.4,0.6-0.6c0.7-0.8,1.5-1.6,2.2-2.3c0.2-0.2,0.4-0.5,0.7-0.7
		c0.8-0.9,1.7-1.7,2.6-2.6c0.3-0.3,0.6-0.5,0.9-0.8c0.8-0.8,1.7-1.6,2.5-2.3c0.2-0.2,0.5-0.4,0.7-0.6c0.8-0.8,1.7-1.5,2.5-2.2
		c0.3-0.3,0.7-0.6,1-0.8c1-0.8,1.9-1.6,2.9-2.3c0.3-0.3,0.7-0.5,1-0.8c0.8-0.6,1.6-1.2,2.4-1.9c0.3-0.2,0.6-0.5,1-0.7
		c1-0.7,2-1.5,3-2.2c0.4-0.3,0.8-0.6,1.2-0.9c1-0.7,2-1.4,3-2c0.4-0.3,0.8-0.5,1.2-0.8c0.8-0.6,1.7-1.1,2.5-1.6
		c0.5-0.3,0.9-0.6,1.3-0.8c1.1-0.7,2.1-1.3,3.2-2l1.5-0.9c0.8-0.5,1.7-1,2.5-1.5c0.6-0.3,1.2-0.7,1.8-1c0.9-0.5,1.9-1.1,2.8-1.6
		c0.5-0.3,1.1-0.6,1.6-0.9c1.1-0.6,2.2-1.2,3.4-1.8c0.5-0.3,1.1-0.5,1.6-0.8c0.8-0.4,1.6-0.8,2.4-1.2c0.6-0.3,1.1-0.6,1.7-0.8
		c1.1-0.6,2.3-1.1,3.4-1.7c0.6-0.3,1.2-0.6,1.8-0.9c0.9-0.4,1.7-0.8,2.6-1.2c0.8-0.4,1.6-0.8,2.5-1.1c0.8-0.4,1.7-0.8,2.5-1.1
		c0.6-0.3,1.3-0.6,1.9-0.8c1.2-0.5,2.3-1,3.5-1.5c0.7-0.3,1.3-0.5,1.9-0.8c0.8-0.3,1.6-0.7,2.4-1c0.8-0.3,1.7-0.7,2.5-1
		c1-0.4,2-0.8,3-1.2c0.7-0.3,1.4-0.5,2.1-0.8c0.9-0.4,1.9-0.7,2.8-1.1c0.9-0.3,1.8-0.7,2.8-1c0.8-0.3,1.6-0.6,2.4-0.9
		c0.7-0.3,1.4-0.5,2.1-0.8c1.2-0.4,2.4-0.9,3.7-1.3c0.7-0.3,1.4-0.5,2.1-0.7c0.8-0.3,1.7-0.6,2.5-0.9c1-0.3,1.9-0.7,2.9-1
		c0.9-0.3,1.9-0.6,2.8-0.9c0.7-0.2,1.4-0.5,2.1-0.7c1.3-0.4,2.5-0.8,3.8-1.2c0.7-0.2,1.3-0.4,1.9-0.6c0.9-0.3,1.8-0.5,2.7-0.8
		c0.6-0.2,1.3-0.4,1.9-0.6c1.3-0.4,2.6-0.8,3.9-1.2c0.7-0.2,1.3-0.4,2-0.6c1-0.3,2.1-0.6,3.1-0.9c0.8-0.2,1.5-0.5,2.3-0.7
		c1-0.3,2.1-0.6,3.1-0.9c0.6-0.2,1.2-0.3,1.8-0.5c1.4-0.4,2.7-0.8,4-1.1c0.5-0.1,1.1-0.3,1.6-0.4c1.1-0.3,2.2-0.6,3.3-0.9
		c0.5-0.1,0.9-0.2,1.4-0.4c1.4-0.4,2.8-0.7,4.2-1.1c0.5-0.1,1-0.3,1.5-0.4c1.4-0.4,2.9-0.7,4.3-1.1c0.3-0.1,0.6-0.2,0.9-0.2
		c1.3-0.3,2.6-0.6,3.9-0.9c0.4-0.1,0.7-0.2,1.1-0.3c1.5-0.3,3-0.7,4.4-1c0.3-0.1,0.6-0.1,0.9-0.2c1.5-0.3,3.1-0.7,4.6-1c0,0,0,0,0,0
		c1.6-0.4,3.2-0.7,4.8-1.1c0.2-0.1,0.4-0.1,0.6-0.1c26.5-5.8,51-9.8,69.6-12.5c18.6-2.7,31.5-4.1,35-4.6c0.5-0.1,1-0.2,1.5-0.2
		c0,0,40.4-35.5,68.4-51.2V638.1c-18.4-31.2-32.4-68.4-40-110.5c-12.1,8-21.1-9-30.2-42.2c-12.3-45.1-17.7-73.4-10.5-85.2
		c1.6-2.7,3.8-4.8,6.3-5.8c-3.4-28.5-4.5-62-1.2-100c7.8-90,43.7-142.8,88.8-173.2c45.1-30.4,99.4-38.2,144-38.2h0.1
		c89.3,0,217.2,31.5,232.8,211.5c3.3,38,2.2,71.5-1.2,100c2.5,1.1,4.7,3.1,6.3,5.8c7.2,11.8,1.8,40.1-10.5,85.2
		c-9,33.2-18.1,50.1-30.2,42.2c-7.6,42.1-21.6,79.3-40,110.5v130.6c28.1,15.8,68.4,51.2,68.4,51.2c0.5,0.1,1,0.2,1.5,0.2
		c6.9,1,51.5,5.6,104.6,17.1c0.2,0.1,0.4,0.1,0.6,0.1c1.6,0.3,3.2,0.7,4.8,1.1c0,0,0,0,0,0c1.5,0.3,3.1,0.7,4.6,1
		c0.3,0.1,0.6,0.2,0.9,0.2c1.5,0.3,3,0.7,4.4,1c0.4,0.1,0.7,0.2,1.1,0.3c1.3,0.3,2.6,0.6,3.9,0.9c0.3,0.1,0.6,0.1,0.9,0.2
		c1.4,0.3,2.9,0.7,4.3,1.1c0.5,0.1,1,0.3,1.5,0.4c1.4,0.4,2.8,0.7,4.2,1.1c0.4,0.1,0.9,0.2,1.4,0.4c1.1,0.3,2.2,0.6,3.3,0.9
		c0.5,0.1,1.1,0.3,1.6,0.4c1.3,0.4,2.7,0.7,4,1.1c0.6,0.2,1.2,0.3,1.8,0.5c1,0.3,2.1,0.6,3.1,0.9c0.8,0.2,1.5,0.4,2.3,0.7
		c1,0.3,2.1,0.6,3.1,0.9c0.7,0.2,1.3,0.4,2,0.6c1.3,0.4,2.6,0.8,3.9,1.2c0.6,0.2,1.3,0.4,1.9,0.6c0.9,0.3,1.8,0.6,2.7,0.8
		c0.7,0.2,1.3,0.4,1.9,0.6c1.3,0.4,2.5,0.8,3.8,1.2c0.7,0.2,1.4,0.4,2.1,0.7c0.9,0.3,1.9,0.6,2.8,0.9c0.9,0.3,1.9,0.7,2.9,1
		c0.8,0.3,1.7,0.6,2.5,0.9c0.7,0.2,1.4,0.5,2.1,0.7c1.2,0.4,2.4,0.9,3.6,1.3c0.7,0.3,1.4,0.5,2.1,0.8c0.8,0.3,1.6,0.6,2.4,0.9
		c0.9,0.3,1.8,0.7,2.8,1c0.9,0.4,1.9,0.7,2.8,1.1c0.7,0.3,1.4,0.5,2.1,0.8c1,0.4,2,0.8,3,1.2c0.8,0.3,1.7,0.7,2.5,1
		c0.8,0.3,1.6,0.7,2.4,1c0.6,0.3,1.3,0.5,1.9,0.8c1.2,0.5,2.3,1,3.5,1.5c0.6,0.3,1.3,0.6,1.9,0.8c0.8,0.4,1.7,0.8,2.5,1.1
		c0.9,0.4,1.7,0.8,2.5,1.1c0.9,0.4,1.7,0.8,2.6,1.2c0.6,0.3,1.2,0.6,1.8,0.9c1.2,0.5,2.3,1.1,3.4,1.7c0.6,0.3,1.1,0.6,1.7,0.8
		c0.8,0.4,1.6,0.8,2.4,1.2c0.5,0.3,1.1,0.5,1.6,0.8c1.1,0.6,2.3,1.2,3.4,1.8c0.5,0.3,1.1,0.6,1.6,0.9c1,0.5,1.9,1,2.8,1.6
		c0.6,0.3,1.2,0.7,1.8,1c0.8,0.5,1.7,1,2.5,1.5l1.5,0.9c1.1,0.7,2.1,1.3,3.2,2c0.4,0.3,0.9,0.6,1.3,0.8c0.8,0.5,1.7,1.1,2.5,1.6
		c0.4,0.3,0.8,0.5,1.2,0.8c1,0.7,2,1.4,3,2c0.4,0.3,0.8,0.6,1.2,0.9c1,0.7,2,1.5,3,2.2c0.3,0.2,0.6,0.5,1,0.7
		c0.8,0.6,1.6,1.2,2.4,1.9c0.3,0.3,0.7,0.5,1,0.8c1,0.8,1.9,1.6,2.9,2.3c0.3,0.3,0.7,0.6,1,0.8c0.9,0.7,1.7,1.5,2.5,2.2
		c0.2,0.2,0.5,0.4,0.7,0.6c0.9,0.8,1.7,1.6,2.5,2.3c0.3,0.3,0.6,0.5,0.9,0.8c0.9,0.8,1.8,1.7,2.6,2.6c0.2,0.2,0.5,0.5,0.7,0.7
		c0.7,0.8,1.5,1.5,2.2,2.3c0.2,0.2,0.4,0.4,0.6,0.6c0.8,0.9,1.6,1.8,2.4,2.8c0.2,0.3,0.4,0.5,0.7,0.8c0.8,0.9,1.6,1.9,2.3,2.9
		c0.1,0.1,0.2,0.3,0.3,0.4c0.7,0.9,1.3,1.8,2,2.7c0.2,0.2,0.3,0.5,0.5,0.7c0.7,1,1.4,2,2,3c0.2,0.2,0.3,0.5,0.4,0.7
		c0.6,1,1.2,1.9,1.7,2.9c0.1,0.1,0.1,0.2,0.2,0.4c0.6,1.1,1.2,2.1,1.7,3.2c0.1,0.3,0.3,0.5,0.4,0.7c0.5,1.1,1.1,2.2,1.5,3.3
		c0.1,0.2,0.1,0.3,0.2,0.5c0.4,1,0.8,2,1.3,3.1c0.1,0.2,0.1,0.4,0.2,0.6c0.4,1.1,0.8,2.2,1.2,3.4c0.1,0.2,0.2,0.5,0.2,0.7
		c0.4,1.2,0.7,2.4,1,3.6C1223.3,976.3,1229.4,1197.3,1235,1353z"/>
	<g>
		<g>
			<g>
				<path class="st0" d="M714.4,1118.1c-8.1,7.9-18.8,12.3-30,12.3h-0.6c-11.5-0.1-22.1-4.8-30.1-13c-8-8.2-12.3-19.1-12.1-30.5
					c0.1-11.3,4.7-22,12.8-29.9c8.1-8,18.7-12.4,30-12.4h0.6c11.5,0.2,22.1,4.8,30.1,13c1,1,1.8,1.9,2.7,3h22.7
					c-9.9-20.6-30.8-34.9-55.2-35.3h-1c-33.9,0-61.6,27.3-62.2,61.3c-0.5,34.3,26.9,62.6,61.3,63.1c0.3,0,0.6,0.1,1,0.1
					c24.7,0,46-14.4,56.1-35.3h-22.7C716.8,1115.7,715.7,1116.9,714.4,1118.1z"/>
				<path class="st0" d="M713.6,1111.2c-0.8,1-1.7,2-2.8,3.2c-7.1,7-16.4,10.8-26.4,10.8h-0.6c-10-0.1-19.4-4.2-26.4-11.4
					c-7-7.3-10.8-16.8-10.6-26.8c0.1-10,4.1-19.3,11.3-26.3c7.1-7,16.4-10.9,26.4-10.9h0.6c10,0.2,19.4,4.3,26.4,11.5h0.1
					c0.7,0.7,1.4,1.5,2.3,2.6l1.6,2h33.4l-3.6-7.5c-11.2-23.2-34.1-37.8-59.8-38.2h-1c-17.7,0-34.5,6.9-47.2,19.3
					c-12.7,12.5-19.9,29.2-20.1,47c-0.3,18,6.5,35,19,47.9c12.5,12.9,29.3,20.1,47.3,20.4h0.1c0.3,0.1,0.6,0.1,0.9,0.1
					c25.7,0,49.5-15,60.6-38.2l3.6-7.4h-33.4L713.6,1111.2z M718.1,1121.8c0.8-0.8,1.4-1.5,2.1-2.2h11.3
					c-10.6,15.3-28.2,24.9-47.1,24.9h-0.1c-0.3-0.1-0.6-0.1-0.8-0.1c-15.1-0.2-29.4-6.3-39.9-17.2c-10.6-10.9-16.3-25.3-16.1-40.5
					c0.4-30.9,26-56.1,57-56.1h0.9c18.9,0.3,35.9,9.7,46.2,24.9h-11.3c-0.5-0.5-0.9-1-1.4-1.4c-8.9-9.2-20.9-14.4-33.7-14.6h-0.8
					c-12.7,0-24.7,4.9-33.7,13.9c-9.1,8.9-14.2,20.8-14.3,33.5c-0.2,12.8,4.7,24.9,13.6,34.2c9,9.2,21,14.4,33.8,14.6h0.7
					C697,1135.6,709,1130.7,718.1,1121.8L718.1,1121.8z"/>
			</g>
		</g>
		<g>
			<g>
				<path class="st0" d="M582.7,1146.8v-58.9l0,0c0-0.1,0-0.1,0-0.2c0.2-11.5-4.1-22.3-12.1-30.5c-8-8.2-18.7-12.8-30.2-13
					c-0.2,0-0.5,0-0.6,0c-11.3,0-22,4.4-30,12.3c-8.1,8-12.6,18.6-12.8,29.9c0,0.5,0,1,0,1.5l0,0v58.9h-19.3v-58.9l0,0
					c0-0.6,0-1.2,0-1.8c0.5-34,28.2-61.3,62.2-61.3c0.3,0,0.6,0,1,0c34.3,0.5,61.7,28.7,61.3,63v58.9L582.7,1146.8L582.7,1146.8z"/>
			</g>
			<g>
				<path class="st0" d="M540.8,1019.7h-1c-17.7,0-34.6,6.9-47.2,19.4c-11.9,11.7-18.9,27.1-20,43.7h-0.2v69.3h29.7v-58.9h0.1
					l-0.1-5.3v-1.3c0.1-10,4.1-19.3,11.3-26.3c7.1-7,16.5-10.8,26.4-10.8h0.6c10.1,0.1,19.5,4.2,26.5,11.5
					c6.7,6.9,10.4,15.8,10.6,25.3v65.8h29.7v-64C607.7,1050.9,577.9,1020.3,540.8,1019.7z M596.9,1141.7h-8.9v-58.9h-0.2
					c-1-10.9-5.6-21.2-13.4-29.1c-8.9-9.3-20.9-14.4-33.7-14.7h-0.8c-12.7,0-24.7,4.9-33.7,13.8c-8.2,8.1-13.1,18.6-14.1,30h-0.2
					v58.9h-8.9v-48.6h0.1l-0.1-5.3v-1.6c0.5-30.9,26-56.1,57-56.1h0.9c31.4,0.4,56.5,26.4,56.1,57.8V1141.7z"/>
			</g>
		</g>
		<g>
			<g>
				<g>
					<path class="st0" d="M886.2,1015.5h-19.3v26.5c-10.9-10.4-25.6-16.9-42-17.2h-1c-33.9,0-61.7,27.3-62.2,61.3
						c-0.5,34.3,26.9,62.6,61.3,63.1c0.3,0,0.6,0.1,1,0.1c33.9,0,61.6-27.3,62.1-61.3c0.1-0.6,0.1-1.2,0-1.8h0.1V1015.5z
						 M824,1044.1h0.6c11.5,0.2,22.2,4.8,30.1,13c8,8.3,12.3,19.1,12.1,30.6c-0.1,11.3-4.7,22-12.8,29.9c-8.1,7.9-18.8,12.3-30,12.3
						h-0.6c-11.5-0.1-22.1-4.8-30.2-13c-8-8.2-12.2-19.1-12.1-30.5c0.2-11.3,4.7-21.9,12.8-29.9C802,1048.6,812.7,1044.1,824,1044.1
						z"/>
				</g>
			</g>
			<g>
				<g>
					<path class="st0" d="M858.6,1053.5c-8.9-9.2-20.9-14.4-33.7-14.6h-0.8c-12.8,0-24.7,4.9-33.7,13.9
						c-9.1,8.9-14.2,20.8-14.4,33.5c-0.1,12.9,4.7,25,13.6,34.2c9,9.3,21,14.4,33.8,14.6h0.7c6.3,0,12.5-1.2,18.2-3.5
						c5.7-2.3,11-5.8,15.6-10.3c9.1-9,14.2-20.9,14.3-33.5C872.4,1075,867.5,1062.9,858.6,1053.5z M824.1,1124.8h-0.6
						c-10-0.1-19.4-4.2-26.5-11.4c-7-7.2-10.7-16.7-10.6-26.8c0.1-10,4.1-19.3,11.3-26.4c7.1-7,16.5-10.9,26.4-10.9h0.6
						c10,0.2,19.4,4.3,26.4,11.5c7.1,7.3,10.9,16.8,10.7,26.9c-0.1,9.9-4.2,19.2-11.3,26.3C843.4,1120.9,834,1124.8,824.1,1124.8z
						 M858.6,1053.5c-8.9-9.2-20.9-14.4-33.7-14.6h-0.8c-12.8,0-24.7,4.9-33.7,13.9c-9.1,8.9-14.2,20.8-14.4,33.5
						c-0.1,12.9,4.7,25,13.6,34.2c9,9.3,21,14.4,33.8,14.6h0.7c6.3,0,12.5-1.2,18.2-3.5c5.7-2.3,11-5.8,15.6-10.3
						c9.1-9,14.2-20.9,14.3-33.5C872.4,1075,867.5,1062.9,858.6,1053.5z M824.1,1124.8h-0.6c-10-0.1-19.4-4.2-26.5-11.4
						c-7-7.2-10.7-16.7-10.6-26.8c0.1-10,4.1-19.3,11.3-26.4c7.1-7,16.5-10.9,26.4-10.9h0.6c10,0.2,19.4,4.3,26.4,11.5
						c7.1,7.3,10.9,16.8,10.7,26.9c-0.1,9.9-4.2,19.2-11.3,26.3C843.4,1120.9,834,1124.8,824.1,1124.8z M861.7,1010.3v20.9
						c-10.8-7.3-23.4-11.3-36.6-11.5h-1c-17.8,0-34.5,6.9-47.2,19.4c-12.7,12.5-19.9,29.2-20.1,47c-0.3,18,6.5,35,19,47.9
						c12.5,12.9,29.3,20.1,47.3,20.4h0.1c0.3,0,0.6,0,0.9,0c17.7,0,34.5-6.9,47.2-19.3c11.9-11.7,18.9-27.1,19.9-43.7h0.2v-81.1
						H861.7z M881,1081.1h-0.5l0.5,5.6v1.4c-0.5,30.9-26,56.1-56.9,56.1h-0.2c-0.3-0.1-0.5-0.1-0.8-0.1c-15.2-0.3-29.5-6.4-40-17.4
						c-10.6-10.9-16.3-25.3-16.1-40.5c0.4-30.9,26-56.1,57-56.1h0.9c14.4,0.3,28,5.8,38.4,15.7l8.7,8.3v-33.5h8.9V1081.1z
						 M824.8,1039h-0.8c-12.8,0-24.7,4.9-33.7,13.9c-9.1,8.9-14.2,20.8-14.4,33.5c-0.1,12.9,4.7,25,13.6,34.2
						c9,9.3,21,14.4,33.8,14.6h0.7c6.3,0,12.5-1.2,18.2-3.5c5.7-2.3,11-5.8,15.6-10.3c9.1-9,14.2-20.9,14.3-33.5
						c0.2-12.8-4.7-24.9-13.6-34.3C849.6,1044.3,837.7,1039.2,824.8,1039z M824.1,1124.8h-0.6c-10-0.1-19.4-4.2-26.5-11.4
						c-7-7.2-10.7-16.7-10.6-26.8c0.1-10,4.1-19.3,11.3-26.4c7.1-7,16.5-10.9,26.4-10.9h0.6c10,0.2,19.4,4.3,26.4,11.5
						c7.1,7.3,10.9,16.8,10.7,26.9c-0.1,9.9-4.2,19.2-11.3,26.3C843.4,1120.9,834,1124.8,824.1,1124.8z M858.6,1053.5
						c-8.9-9.2-20.9-14.4-33.7-14.6h-0.8c-12.8,0-24.7,4.9-33.7,13.9c-9.1,8.9-14.2,20.8-14.4,33.5c-0.1,12.9,4.7,25,13.6,34.2
						c9,9.3,21,14.4,33.8,14.6h0.7c6.3,0,12.5-1.2,18.2-3.5c5.7-2.3,11-5.8,15.6-10.3c9.1-9,14.2-20.9,14.3-33.5
						C872.4,1075,867.5,1062.9,858.6,1053.5z M824.1,1124.8h-0.6c-10-0.1-19.4-4.2-26.5-11.4c-7-7.2-10.7-16.7-10.6-26.8
						c0.1-10,4.1-19.3,11.3-26.4c7.1-7,16.5-10.9,26.4-10.9h0.6c10,0.2,19.4,4.3,26.4,11.5c7.1,7.3,10.9,16.8,10.7,26.9
						c-0.1,9.9-4.2,19.2-11.3,26.3C843.4,1120.9,834,1124.8,824.1,1124.8z M858.6,1053.5c-8.9-9.2-20.9-14.4-33.7-14.6h-0.8
						c-12.8,0-24.7,4.9-33.7,13.9c-9.1,8.9-14.2,20.8-14.4,33.5c-0.1,12.9,4.7,25,13.6,34.2c9,9.3,21,14.4,33.8,14.6h0.7
						c6.3,0,12.5-1.2,18.2-3.5c5.7-2.3,11-5.8,15.6-10.3c9.1-9,14.2-20.9,14.3-33.5C872.4,1075,867.5,1062.9,858.6,1053.5z
						 M824.1,1124.8h-0.6c-10-0.1-19.4-4.2-26.5-11.4c-7-7.2-10.7-16.7-10.6-26.8c0.1-10,4.1-19.3,11.3-26.4
						c7.1-7,16.5-10.9,26.4-10.9h0.6c10,0.2,19.4,4.3,26.4,11.5c7.1,7.3,10.9,16.8,10.7,26.9c-0.1,9.9-4.2,19.2-11.3,26.3
						C843.4,1120.9,834,1124.8,824.1,1124.8z"/>
				</g>
			</g>
		</g>
	</g>
	<g>
		<path class="st0" d="M484.9,1211.1l-3.5,11.4h-7.6l12.9-40.1h9.3l13,40.1h-7.9l-3.6-11.4H484.9z M496.4,1205.6l-3.2-9.9
			c-0.8-2.4-1.4-5.2-2-7.5h-0.1c-0.6,2.3-1.2,5.1-1.9,7.5l-3.1,9.9H496.4z"/>
		<path class="st0" d="M514.8,1182.9c3.2-0.5,7.3-0.8,11.7-0.8c7.5,0,12.7,1.5,16.4,4.6c3.9,3.2,6.3,7.9,6.3,14.8
			c0,7.1-2.4,12.5-6.3,16c-4,3.6-10.4,5.5-18.2,5.5c-4.3,0-7.5-0.2-9.9-0.5V1182.9z M522.1,1216.9c1,0.2,2.6,0.2,4,0.2
			c9.5,0.1,15.2-5.2,15.2-15.4c0.1-8.9-5.1-13.9-14.2-13.9c-2.3,0-4,0.2-5,0.4V1216.9z"/>
		<path class="st0" d="M589.3,1206.1c-0.2-5.2-0.5-11.4-0.5-16.8h-0.2c-1.3,4.9-3,10.3-4.8,15.4L578,1222h-5.7l-5.4-17.1
			c-1.5-5.1-3-10.6-4-15.6h-0.1c-0.2,5.2-0.4,11.6-0.7,17.1l-0.9,16.1h-6.8l2.7-40.1h9.6l5.2,16.1c1.4,4.7,2.7,9.5,3.7,13.9h0.2
			c1.1-4.3,2.4-9.3,4-14l5.5-16.1h9.5l2.3,40.1h-7.1L589.3,1206.1z"/>
		<path class="st0" d="M612,1182.4v40.1h-7.3v-40.1H612z"/>
		<path class="st0" d="M620.4,1222.5v-40.1h8.3l10.4,17.2c2.7,4.5,5,9.1,6.8,13.5h0.1c-0.5-5.4-0.7-10.5-0.7-16.7v-14h6.8v40.1h-7.6
			l-10.5-17.6c-2.6-4.4-5.2-9.3-7.2-13.9l-0.2,0.1c0.3,5.2,0.4,10.5,0.4,17.1v14.3H620.4z"/>
		<path class="st0" d="M660.4,1214.5c2.4,1.4,6,2.6,9.7,2.6c4.7,0,7.3-2.2,7.3-5.5c0-3-2-4.8-7.1-6.7c-6.6-2.4-10.8-5.9-10.8-11.7
			c0-6.5,5.5-11.5,14.2-11.5c4.3,0,7.6,1,9.6,2l-1.8,5.9c-1.4-0.8-4.2-1.9-8-1.9c-4.6,0-6.7,2.5-6.7,4.8c0,3.1,2.3,4.5,7.7,6.6
			c7,2.6,10.4,6.1,10.4,11.9c0,6.4-4.9,12-15.2,12c-4.2,0-8.6-1.2-10.8-2.5L660.4,1214.5z"/>
		<path class="st0" d="M699.2,1188.5h-11.4v-6.1H718v6.1h-11.5v34h-7.3V1188.5z"/>
		<path class="st0" d="M722.7,1182.9c2.7-0.5,6.8-0.8,11.1-0.8c5.8,0,9.7,1,12.4,3.2c2.2,1.8,3.5,4.6,3.5,8c0,5.2-3.5,8.7-7.3,10.1
			v0.2c2.9,1.1,4.6,3.9,5.6,7.7c1.3,5,2.3,9.6,3.2,11.2h-7.6c-0.6-1.2-1.5-4.5-2.7-9.5c-1.1-5.2-3-6.9-7.2-7H730v16.5h-7.3V1182.9z
			 M730,1200.6h4.3c4.9,0,8-2.6,8-6.6c0-4.4-3.1-6.4-7.9-6.4c-2.3,0-3.8,0.2-4.5,0.4V1200.6z"/>
		<path class="st0" d="M765.1,1211.1l-3.5,11.4h-7.6l12.9-40.1h9.3l13,40.1h-7.9l-3.6-11.4H765.1z M776.6,1205.6l-3.2-9.9
			c-0.8-2.4-1.4-5.2-2-7.5h-0.1c-0.6,2.3-1.2,5.1-1.9,7.5l-3.1,9.9H776.6z"/>
		<path class="st0" d="M797.7,1188.5h-11.4v-6.1h30.3v6.1h-11.5v34h-7.3V1188.5z"/>
		<path class="st0" d="M855.2,1202c0,13.5-8.2,21.1-19.2,21.1c-11.3,0-18.5-8.6-18.5-20.4c0-12.3,7.7-21,19-21
			C848.3,1181.7,855.2,1190.6,855.2,1202z M825.3,1202.6c0,8.2,4.1,14.6,11.1,14.6c7.1,0,11.1-6.5,11.1-14.9
			c0-7.6-3.8-14.7-11.1-14.7C829.2,1187.6,825.3,1194.3,825.3,1202.6z"/>
		<path class="st0" d="M861.6,1182.9c2.7-0.5,6.8-0.8,11.1-0.8c5.8,0,9.7,1,12.4,3.2c2.2,1.8,3.5,4.6,3.5,8c0,5.2-3.5,8.7-7.3,10.1
			v0.2c2.9,1.1,4.6,3.9,5.6,7.7c1.3,5,2.3,9.6,3.2,11.2h-7.6c-0.6-1.2-1.5-4.5-2.7-9.5c-1.1-5.2-3-6.9-7.2-7h-3.7v16.5h-7.3V1182.9z
			 M868.8,1200.6h4.3c4.9,0,8-2.6,8-6.6c0-4.4-3.1-6.4-7.9-6.4c-2.3,0-3.8,0.2-4.5,0.4V1200.6z"/>
	</g>
</g>
</svg>
